<svg viewBox="0 0 96 96" xmlns="http://www.w3.org/2000/svg" xmlns:xlink="http://www.w3.org/1999/xlink" id="Icons_Thought_LTR" overflow="hidden"><style>
.MsftOfcThm_Background1_Fill_v2 {
 fill:#FFFFFF; 
}
</style>
<path d="M33.221 76.034 30.221 70.808 30.221 70.591C30.5494 63.3635 24.9565 57.2383 17.7291 56.9099 10.5016 56.5816 4.37637 62.1744 4.048 69.4019 4.03 69.798 4.03 70.1948 4.048 70.591 4.03057 74.7105 5.92747 78.6044 9.182 81.13L9.182 92.147 22.944 92.147 22.944 86.922 25.078 86.922C27.9162 86.9218 30.2169 84.6209 30.2167 81.7827 30.2167 81.7551 30.2164 81.7276 30.216 81.7L30.216 79.083 32.132 79.083C33.265 78.952 34.266 77.646 33.221 76.034Z" class="MsftOfcThm_Background1_Fill_v2" fill="#FFFFFF"/><circle cx="34.314" cy="62.093" r="2.754" class="MsftOfcThm_Background1_Fill_v2" fill="#FFFFFF"/><circle cx="42.976" cy="56.694" r="4.793" class="MsftOfcThm_Background1_Fill_v2" fill="#FFFFFF"/><path d="M81.91 20.361C81.2045 20.3621 80.5021 20.4539 79.82 20.634 80.006 19.9527 80.0978 19.2492 80.093 18.543 80.0776 13.5281 76.0149 9.46718 71 9.454 68.964 9.4601 66.9855 10.1304 65.365 11.363 64.572 7.07566 60.82 3.97331 56.46 4 52.3277 4.04633 48.7281 6.82945 47.643 10.817 45.9793 8.26889 43.1432 6.7311 40.1 6.727 35.0861 6.74128 31.0248 10.8021 31.01 15.816 31.0111 16.5218 31.1028 17.2246 31.283 17.907 30.6006 17.7269 29.8978 17.6351 29.192 17.634 24.172 17.6867 20.1452 21.7988 20.1978 26.8188 20.2497 31.7645 24.2463 35.7611 29.192 35.813L29.283 35.813C29.7518 40.7781 34.1567 44.423 39.1218 43.9543 40.836 43.7924 42.4682 43.1438 43.826 42.085 43.826 42.358 43.735 42.721 43.735 43.085 43.7422 48.1158 47.8263 52.1881 52.8571 52.1809 57.5608 52.1742 61.4859 48.5871 61.915 43.903 63.5928 46.2487 66.302 47.6375 69.186 47.63 74.2001 47.6152 78.2612 43.5541 78.276 38.54L78.276 37.722C79.423 38.2282 80.6577 38.506 81.911 38.54 86.931 38.5927 91.0432 34.5658 91.0958 29.5458 91.1485 24.5258 87.1217 20.4137 82.1017 20.361 82.0381 20.3603 81.9746 20.3603 81.911 20.361Z" class="MsftOfcThm_Background1_Fill_v2" fill="#FFFFFF"/></svg>