<svg viewBox="0 0 96 96" xmlns="http://www.w3.org/2000/svg" xmlns:xlink="http://www.w3.org/1999/xlink" id="Icons_ProfessorMale_M" overflow="hidden"><g id="Icons"><path d="M84.0038 64 46.0058 64 46.0058 91 60.5165 91C60.9848 91.6273 61.721 91.9977 62.5038 92L67.5038 92C68.2866 91.9978 69.0228 91.6273 69.4911 91L84.0038 91ZM48.0058 66 64.0038 66 64.0038 89 48.0058 89ZM82.0038 89 66.0038 89 66.0038 66 82.0038 66Z" stroke="#450001"/><rect x="70.0038" y="72" width="8" height="2" stroke="#450001"/><rect x="70.0038" y="76" width="8" height="2" stroke="#450001"/><rect x="70.0038" y="80" width="6" height="2" stroke="#450001"/><path d="M62.6241 53.724C66.9341 55.271 71.0126 57.0308 74.3867 59.7905 75.1486 60.3886 75.7746 61.1417 76.2234 62L78.4147 62C77.8478 60.5143 76.8871 59.2111 75.6357 58.23 72.008 55.262 67.6979 53.4129 63.1639 51.7922L58.248 49.7739C57.4963 49.4675 57.0057 48.7356 57.008 47.9239L57.008 44.9764C60.5302 42.333 62.7095 38.2727 62.9658 33.8764 63.0548 33.6906 63.2029 33.411 63.3899 33.0564 64.6467 30.6696 65.9875 27.9758 65.9856 26.2126 65.9736 19.7476 62.1513 14.03 55.76 10.917 54.9761 10.5429 54.0513 10.6209 53.3411 11.1211L53.1711 11.2397 52.6731 10.5597C52.1908 9.88555 51.4643 9.42638 50.6484 9.28 49.5906 9.0956 48.519 9.00215 47.4452 9.0007 40.3574 9.0007 34.3852 12.7741 31.8583 18.8483 30.239 23.275 30.1825 28.1224 31.6983 32.5856L33.3101 35.9956C34.0495 39.5811 36.0737 42.7727 39.0019 44.97L39.0019 47.9243C39.0038 48.7363 38.5127 49.4681 37.7607 49.7743L32.8159 51.8043C28.2946 53.4216 23.999 55.267 20.3945 58.2165 18.3006 59.8527 17.0572 62.3466 17.0107 65.0036L17.0107 72.8571 16.8071 72.8122C16.0377 72.6458 15.2457 72.6105 14.4646 72.708L5.9609 44.8306C5.81365 44.2983 5.26277 43.9862 4.73048 44.1334 4.19819 44.2807 3.88605 44.8315 4.03329 45.3638 4.03801 45.3809 4.04318 45.3978 4.0488 45.4146L12.5153 73.1678C9.4889 74.0723 7.8862 75.3933 9.2587 80.7017 10.3212 84.8149 11.7851 85.9702 13.8154 85.9702 14.8038 85.9265 15.783 85.7619 16.7314 85.4802 18.0067 85.1999 19.1713 84.5505 20.08 83.6129 26.065 85.9014 36.3331 86.6249 40.9666 86.8364L42.075 86.8872 40.24 55.0448C45.3383 56.3227 50.6731 56.3229 55.7715 55.0454L55.3742 62 57.3769 62 57.9584 51.8175ZM33.704 19.6167C35.915 14.3022 41.1806 11.001 47.4452 11.001 48.4047 11.0025 49.3623 11.0862 50.3076 11.251 50.6112 11.3117 50.88 11.4867 51.0585 11.7397L52.71 13.9976 54.4834 12.7627C54.5993 12.6769 54.7521 12.6589 54.8848 12.7153 60.5733 15.4858 63.9748 20.5322 63.9854 26.2153 63.9871 27.4918 62.6897 30.0789 61.871 31.6453 60.914 30.4906 59.6868 27.3695 58.9756 25.5586 57.6556 22.1958 57.0274 20.6958 55.9893 20.3813 55.6083 20.2658 55.1954 20.3317 54.8693 20.5601 51.7276 22.7319 48.1429 24.179 44.374 24.7969 40.354 25.655 36.862 26.4149 33.5493 31.8293L33.5361 31.8018C32.233 27.8348 32.2921 23.5463 33.704 19.6167ZM35.0117 33.2661C37.956 28.2124 40.8329 27.5981 44.7917 26.7524 48.615 26.118 52.2622 24.6871 55.4968 22.5524 56.1082 23.7656 56.6479 25.0136 57.1132 26.29 58.5419 29.9272 59.6376 32.5155 60.998 33.5634 60.689 40.7367 54.6233 46.3013 47.45 45.9923 40.5955 45.697 35.1503 40.126 35.0117 33.2665ZM16.2656 83.5352C13.1542 84.3403 12.3202 84.5542 11.1943 80.2007 10.0732 75.8623 10.8993 75.6318 13.9804 74.8354L14.1204 74.7979C14.8611 74.6125 15.6347 74.6014 16.3804 74.7656L16.6148 74.8174C18.1944 75.167 19.4546 76.3556 19.896 77.9121 20.4452 80.4672 18.8202 82.984 16.2656 83.5352ZM35.9135 52.6952 38.0511 51.8175 39.95 84.7837C31.8529 84.3537 25.2454 83.3304 21.2761 81.9337 21.9745 80.543 22.1725 78.9541 21.8367 77.4345 21.4056 75.8695 20.3954 74.527 19.0111 73.6792L19.0111 65.0243C19.052 62.9676 20.0195 61.0394 21.6439 59.7772 25.0031 57.0292 29.0785 55.2714 33.3864 53.7251ZM39.9835 50.592C40.6408 49.859 41.0036 48.9087 41.0022 47.9242L41.0022 46.2562C45.3802 48.5842 50.6285 48.5859 55.008 46.2607L55.008 47.9238C55.0064 48.9084 55.3691 49.8587 56.0261 50.592L55.8923 52.9333C50.7311 54.3604 45.2794 54.3601 40.1184 52.9324Z" stroke="#450001"/></g></svg>