<svg viewBox="0 0 96 96" xmlns="http://www.w3.org/2000/svg" xmlns:xlink="http://www.w3.org/1999/xlink" id="Icons_Badge3" overflow="hidden"><style>
.MsftOfcResponsive_Fill_60493d {
 fill:#60493D; 
}
</style>
<path d="M47.986 10C27.0102 9.99945 10.0056 27.0032 10.005 47.979 10.0044 68.9548 27.0082 85.9594 47.984 85.96 68.9598 85.9605 85.9644 68.9568 85.965 47.981 85.965 47.9797 85.965 47.9783 85.965 47.977 85.9727 27.0106 68.9824 10.0077 48.016 10 48.006 9.99999 47.996 9.99999 47.986 10ZM58.034 59.532C57.3353 60.7735 56.3643 61.8406 55.194 62.653 53.9273 63.5274 52.5173 64.1734 51.028 64.562 49.3977 65.0002 47.7161 65.2181 46.028 65.21 44.3245 65.2159 42.6241 65.0656 40.948 64.761 39.5447 64.5349 38.1878 64.0809 36.931 63.417L36.931 58.3C38.2655 59.2316 39.7555 59.9177 41.331 60.326 42.9158 60.7601 44.5509 60.9834 46.194 60.99 46.9855 60.9844 47.7748 60.9064 48.552 60.757 49.3748 60.6091 50.1667 60.3231 50.894 59.911 51.6145 59.4998 52.2286 58.9255 52.687 58.234 53.1882 57.4292 53.4362 56.4924 53.399 55.545 53.4283 54.5762 53.1936 53.6177 52.72 52.772 52.2577 52.0011 51.6061 51.3612 50.827 50.913 49.9401 50.4081 48.9752 50.0546 47.972 49.867 46.7956 49.6382 45.5994 49.527 44.401 49.535L41.315 49.535 41.315 45.285 44.237 45.285C45.3018 45.2928 46.3646 45.1923 47.409 44.985 48.293 44.8176 49.1377 44.4855 49.899 44.006 50.5792 43.5705 51.1388 42.9708 51.526 42.262 51.9347 41.4617 52.1346 40.5712 52.107 39.673 52.1403 38.8575 51.9513 38.0483 51.56 37.332 51.2181 36.7479 50.7372 36.2574 50.16 35.904 49.592 35.5597 48.9678 35.318 48.316 35.19 47.6825 35.06 47.0377 34.993 46.391 34.99 44.9975 35.0029 43.6122 35.2048 42.273 35.59 40.8776 35.9686 39.554 36.574 38.355 37.382L38.355 32.671C39.5982 32.0122 40.9254 31.5261 42.3 31.226 43.799 30.8981 45.3296 30.7368 46.864 30.745 48.2347 30.7425 49.6007 30.904 50.933 31.226 52.175 31.5166 53.3586 32.0164 54.433 32.704 55.4297 33.3463 56.265 34.2096 56.874 35.227 57.5032 36.3273 57.8186 37.579 57.786 38.846 57.8652 40.8378 57.183 42.7851 55.878 44.292 54.4805 45.7791 52.651 46.7894 50.648 47.18 51.7326 47.2921 52.7951 47.5616 53.802 47.98 54.7917 48.3839 55.7067 48.9507 56.509 49.657 57.2878 50.3463 57.9247 51.1809 58.384 52.114 58.8557 53.0804 59.0954 54.1436 59.084 55.219 59.1154 56.7236 58.7535 58.2102 58.034 59.532Z" class="MsftOfcResponsive_Fill_60493d" fill="#60493D"/></svg>