<svg viewBox="0 0 96 96" xmlns="http://www.w3.org/2000/svg" xmlns:xlink="http://www.w3.org/1999/xlink" id="Icons_Badge2" overflow="hidden"><style>
.MsftOfcResponsive_Fill_60493d {
 fill:#60493D; 
}
</style>
<path d="M47.986 10C27.0108 10 10.007 27.0038 10.007 47.979 10.007 68.9542 27.0108 85.958 47.986 85.958 68.9612 85.958 85.965 68.9542 85.965 47.979 85.965 47.978 85.965 47.977 85.965 47.976 85.9722 27.0096 68.9814 10.0072 48.015 10 48.0053 10 47.9957 10 47.986 10ZM58.844 65.009 37.129 65.009 37.129 61.822C37.1092 60.4863 37.3574 59.1601 37.859 57.922 38.3506 56.7536 39.0287 55.6728 39.867 54.722 40.7591 53.7123 41.7557 52.7999 42.84 52 43.9693 51.1593 45.1867 50.3403 46.492 49.543 47.5851 48.8884 48.622 48.1442 49.592 47.318 50.3213 46.6957 50.9694 45.9841 51.521 45.2 51.975 44.5513 52.3074 43.8255 52.502 43.058 52.6844 42.2743 52.7734 41.4717 52.767 40.667 52.7682 39.9676 52.6561 39.2726 52.435 38.609 52.2268 37.9689 51.8937 37.3765 51.455 36.866 50.9979 36.3474 50.4308 35.9374 49.795 35.666 49.055 35.3545 48.2578 35.2018 47.455 35.218 45.887 35.2121 44.3397 35.5763 42.939 36.281 41.466 37.0285 40.1122 37.9906 38.922 39.136L38.922 33.956C40.0721 32.8847 41.4514 32.0898 42.955 31.632 44.5775 31.1509 46.2628 30.9149 47.955 30.932 49.3062 30.9226 50.6505 31.1251 51.939 31.532 53.1246 31.9009 54.229 32.4925 55.193 33.275 56.1303 34.0485 56.8798 35.0247 57.385 36.13 57.935 37.3554 58.2081 38.687 58.185 40.03 58.1967 41.2378 58.0566 42.4422 57.768 43.615 57.4852 44.7161 57.0231 45.7631 56.4 46.714 55.7055 47.7609 54.8741 48.7103 53.928 49.537 52.7634 50.5526 51.5198 51.4738 50.209 52.292 49.013 53.0453 47.9503 53.7427 47.021 54.384 46.1792 54.9554 45.385 55.5938 44.646 56.293 44.045 56.8563 43.5457 57.519 43.17 58.252 42.8321 58.9506 42.661 59.718 42.67 60.494L58.84 60.494Z" class="MsftOfcResponsive_Fill_60493d" fill="#60493D"/></svg>