<svg viewBox="0 0 96 96" xmlns="http://www.w3.org/2000/svg" xmlns:xlink="http://www.w3.org/1999/xlink" id="Icons_ClipboardPartiallyChecked_RTL" overflow="hidden"><path d="M23 20 34 20 34 26 62 26 62 20 73 20 73 82 23 82 23 20ZM48.1 12C49.7 12 51 13.4 51 15 51 16.7 49.7 18 48 18 46.3 18 45 16.7 45 15 45 13.3 46.3 12 48.1 12ZM17 18 17 84C17 86.2 18.8 88 21 88L75 88C77.2 88 79 86.2 79 84L79 18C79 15.8 77.2 14 75 14L58 14 58 12C58 9.8 56.2 8 54 8L42 8C39.8 8 38 9.8 38 12L38 14 21 14C18.8 14 17 15.8 17 18Z" fill="#450001"/><rect x="29" y="34" width="17" height="4" fill="#450001"/><rect x="29" y="46" width="17" height="4" fill="#450001"/><rect x="29" y="58" width="17" height="4" fill="#450001"/><rect x="29" y="70" width="17" height="4" fill="#450001"/><rect x="57.5" y="56.5" width="7" height="7" fill="#450001"/><rect x="57.5" y="68.5" width="7" height="7" fill="#450001"/><path d="M52.9 35.8 55 33.7 57.6 36.3 64.2 29.7 66.3 31.8 57.6 40.5Z" fill="#450001"/><path d="M52.9 47.8 55 45.7 57.6 48.3 64.2 41.7 66.3 43.8 57.6 52.5Z" fill="#450001"/></svg>