<svg viewBox="0 0 96 96" xmlns="http://www.w3.org/2000/svg" xmlns:xlink="http://www.w3.org/1999/xlink" id="Icons_NormalDistribution_RTL" overflow="hidden"><style>
.MsftOfcThm_Background1_Fill_v2 {
 fill:#FFFFFF; 
}
</style>
<path d="M76 76 14 76 14 82 82 82 82 14 76 14Z" class="MsftOfcThm_Background1_Fill_v2" fill="#FFFFFF"/><path d="M14 62.7 14 68.7C14.1 68.7 14.3 68.7 14.5 68.7 26.7 69.1 33.7 61.1 35.4 44.9 37.1 28.2 41.2 28.2 42.8 28.2 44.4 28.2 48.5 28.2 50.2 44.9 51.8 60.7 58.5 68.8 70.2 68.8 70.5 68.8 70.8 68.8 71.1 68.8 71.3 68.8 71.5 68.8 71.6 68.8L71.6 62.8C71.4 62.8 71.1 62.8 70.9 62.8 67.4 62.9 58.1 63.3 56.2 44.4 54.6 28.9 50.7 22.3 42.9 22.3 35.1 22.3 31 28.8 29.4 44.2 27.5 63.1 18.2 62.8 14.7 62.6 14.5 62.7 14.2 62.7 14 62.7Z" class="MsftOfcThm_Background1_Fill_v2" fill="#FFFFFF"/><rect x="41.8" y="43.2" width="2" height="5" class="MsftOfcThm_Background1_Fill_v2" fill="#FFFFFF"/><rect x="41.8" y="52.2" width="2" height="5" class="MsftOfcThm_Background1_Fill_v2" fill="#FFFFFF"/><rect x="41.8" y="34.5" width="2" height="5" class="MsftOfcThm_Background1_Fill_v2" fill="#FFFFFF"/><rect x="41.8" y="61.2" width="2" height="4.8" class="MsftOfcThm_Background1_Fill_v2" fill="#FFFFFF"/></svg>